# AST/ASF file generated using VICON BodyLanguage
# -----------------------------------------------
:version 1.10
:name VICON
:units
  mass 1.0
  length 0.45
  angle deg
:documentation
   .ast/.asf automatically generated from VICON data using
   VICON BodyBuilder and BodyLanguage model FoxedUp or BRILLIANT.MOD
:root
   order TX TY TZ RX RY RZ
   axis XYZ
   position 0 0 0  
   orientation 0 0 0 
:bonedata
  begin
     id 1 
     name lhipjoint
     direction 0.702568 -0.596508 0.388042 
     length 2.56661 
     axis 0 0 0  XYZ
  end
  begin
     id 2 
     name lfemur
     direction 0.34202 -0.939693 0  
     length 6.58374  
     axis 0 0 20  XYZ
    dof rx ry rz
    limits (-160.0 20.0)
           (-70.0 70.0)
           (-60.0 70.0)
  end
  begin
     id 3 
     name ltibia
     direction 0.34202 -0.939693 0   
     length 6.62538   
     axis 0 0 20   XYZ
    dof rx
    limits (-10.0 170.0)
  end
  begin
     id 4 
     name lfoot
     direction 0.10455 -0.287249 0.952133   
     length 2.26699   
     axis -90 7.62852e-016 20   XYZ
    dof rx rz
    limits (-45.0 90.0)
           (-70.0 20.0)
  end
  begin
     id 5 
     name ltoes
     direction 1.53572e-011 -4.22322e-011 1   
     length 1.12949   
     axis -90 7.62852e-016 20   XYZ
    dof rx
    limits (-90.0 20.0)
  end
  begin
     id 6 
     name rhipjoint
     direction -0.728055 -0.574632 0.373811   
     length 2.66432  
     axis 0 0 0  XYZ 
  end
  begin
     id 7 
     name rfemur
     direction -0.34202 -0.939693 0   
     length 6.66732   
     axis 0 0 -20   XYZ
    dof rx ry rz
    limits (-160.0 20.0)
           (-70.0 70.0)
           (-70.0 60.0)
  end
  begin
     id 8 
     name rtibia
     direction -0.34202 -0.939693 0   
     length 6.59288   
     axis 0 0 -20   XYZ
    dof rx
    limits (-10.0 170.0)
 end
 begin
     id 9 
     name rfoot
     direction -0.119193 -0.327479 0.93731   
     length 2.38061  
     axis -90 -7.62852e-016 -20   XYZ
    dof rx rz
    limits (-45.0 90.0)
           (-20.0 70.0)
  end
  begin
     id 10 
     name rtoes
     direction -1.53547e-011 -4.21827e-011 1   
     length 1.17899   
     axis -90 -7.62852e-016 -20   XYZ
    dof rx
    limits (-90.0 20.0)
  end
  begin
     id 11 
     name lowerback
     direction -0.000416114 0.999912 -0.0132284   
     length 2.12109   
     axis 0 0 0   XYZ
    dof rx ry rz
    limits (-20.0 45.0)
           (-30.0 30.0)
           (-30.0 30.0)
  end
  begin
     id 12 
     name upperback
     direction -0.00136371 0.99809 0.0617608   
     length 2.10067   
     axis 0 0 0   XYZ
    dof rx ry rz
    limits (-20.0 45.0)
           (-30.0 30.0)
           (-30.0 30.0)
  end
  begin
     id 13 
     name thorax
     direction -3.43026e-005 0.997776 0.0666515   
     length 2.10618   
     axis 0 0 0   XYZ
    dof rx ry rz
    limits (-20.0 45.0)
           (-30.0 30.0)
           (-30.0 30.0)
  end
  begin
     id 14 
     name lowerneck
     direction 0.0398646 0.998418 0.0396592   
     length 1.83817   
     axis 0 0 0   XYZ
    dof rx ry rz
    limits (-20.0 45.0)
           (-30.0 30.0)
           (-30.0 30.0)
  end
  begin
     id 15 
     name upperneck
     direction -0.0367268 0.961527 -0.272244   
     length 1.81975   
     axis 0 0 0   XYZ
    dof rx ry rz
    limits (-20.0 45.0)
           (-30.0 30.0)
           (-30.0 30.0)
  end
  begin
     id 16
     name head
     direction -0.0182665 0.99536 -0.0944669  
     length 1.86026  
     axis 0 0 0   XYZ
    dof rx ry rz
    limits (-20.0 45.0)
           (-30.0 30.0)
           (-30.0 30.0)
  end
  begin
     id 17 
     name lclavicle
     direction 0.924239 0.361045 0.124212  
     length 3.26878  
     axis 0 0 0   XYZ
    dof ry rz
    limits (-20.0 10.0)
           (0.0 20.0)
  end
  begin
     id 18 
     name lhumerus
     direction 1 -4.48968e-011 -2.56583e-027   
     length 4.58538   
     axis 180 -30 -90   XYZ
    dof rx ry rz
    limits (-60.0 90.0)
           (-90.0 90.0)
           (-90.0 90.0)
  end
  begin
     id 19
     name lradius
     direction 1 -4.4898e-011 -5.50375e-027   
     length 2.68935   
     axis 180 -30 -90   XYZ
    dof rx
    limits (-10.0 170.0)
  end
  begin
     id 20
     name lwrist
     direction 1 -4.48939e-011 -1.48955e-026   
     length 1.34468   
     axis 9.0955e-015 90 90   XYZ
    dof ry
    limits (-180.0 0.0)
 end
  begin
     id 21 
     name lhand
     direction 1 -4.48936e-011 -2.97907e-026   
     length 0.585058   
     axis 1.90115e-014 90 90   XYZ
    dof rx rz
    limits (-90.0 90.0)
           (-45.0 45.0)
  end
  begin
     id 22 
     name lfingers
     direction 1 -4.49082e-011 -5.96235e-026   
     length 0.471689   
     axis 3.80223e-014 90 90   XYZ
    dof rx
    limits (0.0 90.0)
  end
  begin
     id 23
     name lthumb
     direction 0.707107 -6.3489e-011 0.707107   
     length 0.677253   
     axis -90 45 -3.84942e-014   XYZ
    dof rx rz
    limits (-45.0 45.0)
           (-45.0 45.0)
  end
  begin
     id 24 
     name rclavicle
     direction -0.923098 0.371783 0.0983239   
     length 3.19656  
     axis 0 0 0   XYZ 
    dof ry rz
    limits (-10.0 20.0)
           (-20.0 0.0)
  end
  begin
     id 25 
     name rhumerus
     direction -1 -4.48976e-011 -2.5492e-027  
     length 4.4745   
     axis 180 30 90   XYZ
    dof rx ry rz
    limits (-90.0 60.0)
           (-90.0 90.0)
           (-90.0 90.0)
  end
  begin
     id 26 
     name rradius
     direction -1 -4.48941e-011 -4.36555e-027   
     length 2.93896   
     axis 180 30 90   XYZ
    dof rx
    limits (-10.0 170.0)
  end
  begin
     id 27 
     name rwrist
     direction -1 -4.49044e-011 -1.49032e-026   
     length 1.46948   
     axis 9.0955e-015 -90 -90   XYZ
    dof ry
    limits (-180.0 0.0)
  end
  begin
     id 28
     name rhand
     direction -1 -4.48826e-011 -2.97749e-026   
     length 0.405092   
     axis 1.90115e-014 -90 -90   XYZ
    dof rx rz
    limits (-90.0 90.0)
           (-45.0 45.0)
  end
  begin
     id 29
     name rfingers
     direction -1 -4.49209e-011 -5.96602e-026   
     length 0.326596   
     axis 3.80223e-014 -90 -90   XYZ
    dof rx
    limits (0.0 90.0)
  end
  begin
     id 30
     name rthumb
     direction -0.707107 -6.34776e-011 0.707107   
     length 0.468928   
     axis -90 -45 3.84942e-014   XYZ
    dof rx rz
    limits (-45.0 45.0)
           (-45.0 45.0)
  end
:hierarchy
  begin
    root lhipjoint rhipjoint lowerback
    lhipjoint lfemur
    lfemur ltibia
    ltibia lfoot
    lfoot ltoes
    rhipjoint rfemur
    rfemur rtibia
    rtibia rfoot
    rfoot rtoes
    lowerback upperback
    upperback thorax
    thorax lowerneck lclavicle rclavicle
    lowerneck upperneck
    upperneck head
    lclavicle lhumerus
    lhumerus lradius
    lradius lwrist
    lwrist lhand lthumb
    lhand lfingers
    rclavicle rhumerus
    rhumerus rradius
    rradius rwrist
    rwrist rhand rthumb
    rhand rfingers
  end

#!OML:ASF H:\Punching\Project 1\Capture day 1\Session 1\female.ASF
:FULLY-SPECIFIED
:DEGREES
740
root 0.249283 14.0131 -1.38343 20.7215 20.4117 7.31446
lowerback -3.04674 -2.89508 0.977999
upperback -7.54623 -3.77288 1.3953
thorax -6.09674 -1.87831 0.991015
lowerneck -13.9418 2.74072 5.51924
upperneck 33.2484 6.12634 -10.0587
head 14.1974 2.10429 -4.0588
rclavicle -2.127e-014 -2.70347e-014
rhumerus 15.3717 14.4503 -59.2626
rradius 131.719
rwrist -23.6292
rhand -27.7644 5.25849
rfingers 7.12502
rthumb -1.15835 -24.7181
lclavicle -2.127e-014 -2.70347e-014
lhumerus -1.59131 -23.1457 72.9142
lradius 137.282
lwrist -1.36936
lhand -24.3378 -1.60094
lfingers 7.12502
lthumb 2.15116 28.368
rfemur -69.1538 -25.0453 24.0129
rtibia 68.9294
rfoot -18.5632 -20.4022
rtoes 13.0031
lfemur 0.509669 -13.1958 -11.554
ltibia 23.5117
lfoot -27.6902 18.4505
ltoes -23.9171
741
root 0.295007 14.0136 -1.47639 20.7913 20.6474 7.40198
lowerback -2.93514 -2.81275 0.822135
upperback -7.49461 -3.66232 1.39852
thorax -6.0952 -1.8137 1.08218
lowerneck -14.0061 2.55704 5.49078
upperneck 33.0571 5.76923 -9.86738
head 14.0753 1.9703 -4.02199
rclavicle 2.24627e-014 2.06736e-014
rhumerus 15.2106 14.2029 -59.6304
rradius 131.714
rwrist -23.5751
rhand -27.8615 5.17887
rfingers 7.12502
rthumb -1.25215 -24.7972
lclavicle 2.24627e-014 2.06736e-014
lhumerus -1.48031 -23.3487 72.8893
lradius 137.304
lwrist -1.41207
lhand -24.2565 -1.48741
lfingers 7.12502
lthumb 2.22961 28.4807
rfemur -69.2714 -25.2005 23.464
rtibia 68.7099
rfoot -17.8366 -20.0934
rtoes 12.3653
lfemur 0.335147 -13.2557 -11.9101
ltibia 23.1945
lfoot -28.3732 19.0405
ltoes -23.6883
742
root 0.341202 14.017 -1.57021 20.8568 20.8701 7.4945
lowerback -2.81986 -2.73714 0.675186
upperback -7.43521 -3.56148 1.39619
thorax -6.08901 -1.7548 1.16266
lowerneck -14.0978 2.3852 5.47481
upperneck 32.8773 5.43184 -9.6878
head 13.9697 1.84363 -3.98997
rclavicle -5.4467e-014 -1.43125e-014
rhumerus 15.0684 13.9938 -60.0184
rradius 131.702
rwrist -23.5284
rhand -27.9468 5.14944
rfingers 7.12502
rthumb -1.33456 -24.8261
lclavicle -5.4467e-014 -1.43125e-014
lhumerus -1.38077 -23.5404 72.8656
lradius 137.331
lwrist -1.46312
lhand -24.214 -1.3786
lfingers 7.12502
lthumb 2.27066 28.5891
rfemur -69.3358 -25.3324 22.8644
rtibia 68.4453
rfoot -17.0423 -19.7513
rtoes 11.5475
lfemur 0.147712 -13.3055 -12.2923
ltibia 22.8742
lfoot -28.9761 19.6948
ltoes -23.3709
743
root 0.387949 14.0226 -1.66494 20.9135 21.0818 7.56916
lowerback -2.70009 -2.66754 0.557017
upperback -7.3668 -3.46864 1.3986
thorax -6.07774 -1.70155 1.2321
lowerneck -14.2311 2.22783 5.46417
upperneck 32.7071 5.11925 -9.52055
head 13.8828 1.72526 -3.96084
rclavicle 1.37161e-014 3.02153e-014
rhumerus 14.9582 13.829 -60.4134
rradius 131.684
rwrist -23.4707
rhand -28.0253 5.16873
rfingers 7.12502
rthumb -1.41038 -24.8064
lclavicle 1.37161e-014 3.02153e-014
lhumerus -1.27964 -23.7073 72.841
lradius 137.361
lwrist -1.50694
lhand -24.1968 -1.25804
lfingers 7.12502
lthumb 2.28728 28.7094
rfemur -69.3491 -25.4237 22.2351
rtibia 68.1346
rfoot -16.1787 -19.385
rtoes 10.5653
lfemur -0.0576946 -13.3591 -12.6773
ltibia 22.5603
lfoot -29.5452 20.3896
ltoes -22.8691
744
root 0.435407 14.0301 -1.7607 20.9564 21.2866 7.59829
lowerback -2.58487 -2.60438 0.492466
upperback -7.30081 -3.38329 1.41697
thorax -6.06913 -1.65462 1.28831
lowerneck -14.3568 2.08367 5.45654
upperneck 32.533 4.83266 -9.37152
head 13.7975 1.61618 -3.93572
rclavicle 7.69297e-014 -7.95139e-015
rhumerus 14.8794 13.7209 -60.7958
rradius 131.661
rwrist -23.4036
rhand -28.0901 5.2544
rfingers 7.12502
rthumb -1.47298 -24.7203
lclavicle 7.69297e-014 -7.95139e-015
lhumerus -1.19752 -23.8467 72.8273
lradius 137.391
lwrist -1.55384
lhand -24.2217 -1.15003
lfingers 7.12502
lthumb 2.26327 28.8177
rfemur -69.3148 -25.4656 21.6107
rtibia 67.7722
rfoot -15.2657 -18.9993
rtoes 9.47829
lfemur -0.294866 -13.4054 -13.0351
ltibia 22.2742
lfoot -30.0971 21.1163
ltoes -22.1952
745
root 0.483555 14.0394 -1.85734 20.9806 21.4778 7.57319
lowerback -2.4736 -2.54384 0.486826
upperback -7.23817 -3.29993 1.45289
thorax -6.06456 -1.61146 1.32986
lowerneck -14.4655 1.95046 5.44718
upperneck 32.3486 4.56801 -9.23545
head 13.7078 1.51496 -3.91184
rclavicle -9.83984e-015 2.22639e-014
rhumerus 14.8329 13.6673 -61.156
rradius 131.636
rwrist -23.3286
rhand -28.153 5.35117
rfingers 7.12502
rthumb -1.53369 -24.6231
lclavicle -9.83984e-015 2.22639e-014
lhumerus -1.13556 -23.9616 72.8257
lradius 137.419
lwrist -1.60358
lhand -24.2771 -1.04501
lfingers 7.12502
lthumb 2.20979 28.9233
rfemur -69.2319 -25.447 21.0003
rtibia 67.3562
rfoot -14.3221 -18.5987
rtoes 8.33263
lfemur -0.55856 -13.4498 -13.3636
ltibia 22.0392
lfoot -30.6706 21.875
ltoes -21.3119
